<svg width="33" height="33" viewBox="0 0 33 33" fill="none" xmlns="http://www.w3.org/2000/svg">
<circle cx="16.5" cy="16.5" r="16.5" fill="#EDEEE6"/>
<path d="M4 9.375C4 9.375 5.875 7 10.25 7C14.625 7 16.5 9.375 16.5 9.375V26C16.5 26 14.625 24.8125 10.25 24.8125C5.875 24.8125 4 26 4 26V9.375ZM16.5 9.375C16.5 9.375 18.375 7 22.75 7C27.125 7 29 9.375 29 9.375V26C29 26 27.125 24.8125 22.75 24.8125C18.375 24.8125 16.5 26 16.5 26V9.375Z" stroke="#27140B" stroke-width="2" stroke-linecap="round" stroke-linejoin="round"/>
</svg>
