<svg width="33" height="33" viewBox="0 0 33 33" fill="none" xmlns="http://www.w3.org/2000/svg">
<circle cx="16.5" cy="16.5" r="16.5" fill="#EDEEE6"/>
<path d="M14.593 18.407C15.1476 18.9344 15.1476 19.8 14.593 20.3274C14.0656 20.8549 13.2 20.8549 12.6726 20.3274C10.0353 17.6902 10.0353 13.4029 12.6726 10.7656L17.4602 5.97796C20.0975 3.34068 24.3848 3.34068 27.022 5.97796C29.6593 8.61523 29.6593 12.9025 27.022 15.5398L25.0069 17.5549C25.0204 16.4459 24.8446 15.3369 24.4659 14.282L25.1016 13.6328C26.6975 12.0504 26.6975 9.4808 25.1016 7.89843C23.5192 6.30254 20.9496 6.30254 19.3672 7.89843L14.593 12.6726C12.9972 14.2549 12.9972 16.8246 14.593 18.407ZM18.407 12.6726C18.9344 12.1451 19.8 12.1451 20.3274 12.6726C22.9647 15.3098 22.9647 19.5971 20.3274 22.2344L15.5398 27.022C12.9025 29.6593 8.61523 29.6593 5.97796 27.022C3.34068 24.3848 3.34068 20.0975 5.97796 17.4602L7.9931 15.4451C7.97958 16.5541 8.1554 17.6631 8.53408 18.7315L7.89843 19.3672C6.30254 20.9496 6.30254 23.5192 7.89843 25.1016C9.4808 26.6975 12.0504 26.6975 13.6328 25.1016L18.407 20.3274C20.0028 18.7451 20.0028 16.1754 18.407 14.593C17.8524 14.0656 17.8524 13.2 18.407 12.6726Z" fill="#27140B"/>
</svg>
