<svg width="33" height="33" viewBox="0 0 33 33" fill="none" xmlns="http://www.w3.org/2000/svg">
<circle cx="16.5" cy="16.5" r="16.5" fill="#EDEEE6"/>
<path d="M16.9874 10.1702C17.869 7.92184 19.9849 7 22.403 7C25.5264 7 29.204 8.48394 31.9496 10.6424C32 10.6424 32 10.6874 32 10.7323V12.2163C32 12.2612 31.9496 12.3062 31.8992 12.2612C29.4307 10.7323 25.9798 9.47323 23.2343 9.47323C20.6398 9.47323 18.6751 10.5974 18.6751 13.5203V28H15.3249V13.5653C15.3249 10.5974 13.335 9.5182 10.7657 9.5182C7.96977 9.5182 4.51889 10.7323 2.10076 12.3062C2.05038 12.3512 2 12.3062 2 12.2612V10.7548C2 10.7099 2 10.6649 2.05038 10.6199C4.77078 8.50643 8.49874 7 11.5718 7C14.0403 7 16.1058 7.92184 16.937 10.1702H16.9874Z" fill="#27140B"/>
</svg>
