<svg width="33" height="33" viewBox="0 0 33 33" fill="none" xmlns="http://www.w3.org/2000/svg">
<circle cx="16.5" cy="16.5" r="16.5" fill="#EDEEE6"/>
<path d="M32 9.07411L31.9859 9.60592C30.669 9.6408 29.8769 10.2947 29.3707 11.3627C28.199 13.8823 24.5293 21.8246 22.0922 26.9946H21.4548L17.6163 18.5771C16.0931 21.3495 14.4152 24.244 12.967 26.9946C12.953 27.0077 12.264 26.9946 12.264 26.9815C10.0659 22.1995 7.76004 17.4524 5.55726 12.6573C5.02297 11.4934 3.24199 9.60592 2.01406 9.619C2.01406 9.48387 2 9.18308 2 9H9.58788V9.60592C8.68802 9.65387 7.11326 10.1857 7.55851 11.0968C8.58491 13.2633 12.414 21.5718 13.4451 23.6773C14.1481 22.3826 16.154 18.9171 16.9742 17.4524C16.3228 16.2188 14.2278 11.6155 13.5623 10.4778C13.1076 9.70182 11.8703 9.63208 10.947 9.619V9.01308L17.6257 9.02615V9.5972C16.7165 9.62336 15.84 9.93722 16.2478 10.7349C17.1336 12.4786 17.6819 13.7035 18.5021 15.299C18.7646 14.8282 20.1284 12.2737 20.7564 10.9049C21.1736 10.007 20.5737 9.65823 18.9474 9.62336C18.9614 9.46643 18.9474 9.17437 18.9614 9.03051C21.0423 9.01744 24.1684 9.01744 24.7308 9.00436V9.5972C23.6763 9.63208 22.5843 10.1552 22.0078 10.9791L19.2332 16.3321C19.5332 17.0339 22.2 22.557 22.4765 23.1629L28.2131 10.8439C27.81 9.83696 26.5071 9.619 26.0009 9.61028V9.00436L31.9906 9.05231L32 9.07411Z" fill="#27140B"/>
</svg>
