<svg width="262" height="16" viewBox="0 0 262 16" fill="none" xmlns="http://www.w3.org/2000/svg">
<path d="M3.70352 15C3.60587 15 3.52449 14.9414 3.45938 14.8242C3.40079 14.707 3.37149 14.5996 3.37149 14.502C3.37149 14.3913 3.39428 14.3066 3.43985 14.248C3.48542 14.1895 3.57006 14.1536 3.69376 14.1406C4.2862 14.1081 4.76797 14.0299 5.13907 13.9062C5.51667 13.776 5.70547 13.5482 5.70547 13.2227V2.10938H3.26407C2.92553 2.10938 2.64558 2.30794 2.42422 2.70508C2.20938 3.0957 2.04988 3.5319 1.94571 4.01367C1.84805 4.49544 1.7862 4.9056 1.76016 5.24414C1.74714 5.35482 1.68204 5.4362 1.56485 5.48828C1.45417 5.54036 1.33373 5.56641 1.20352 5.56641C1.10587 5.56641 0.998444 5.53711 0.881256 5.47852C0.764069 5.41341 0.705475 5.33203 0.705475 5.23438C0.738027 4.25781 0.777089 3.33333 0.822662 2.46094C0.874746 1.58203 0.933339 1.14258 0.998444 1.14258H13.5668C13.6319 1.14258 13.6872 1.58203 13.7328 2.46094C13.7849 3.33333 13.8272 4.25781 13.8598 5.23438C13.8598 5.33203 13.8012 5.41341 13.684 5.47852C13.5668 5.53711 13.4594 5.56641 13.3617 5.56641C13.2315 5.56641 13.1078 5.54036 12.9906 5.48828C12.88 5.4362 12.8181 5.35482 12.8051 5.24414C12.727 4.54102 12.5772 3.8444 12.3559 3.1543C12.1345 2.45768 11.7829 2.10938 11.3012 2.10938H8.98672V13.1934C8.98672 13.4538 9.08764 13.6491 9.28946 13.7793C9.49128 13.9095 9.7224 13.9974 9.98282 14.043C10.2432 14.082 10.5688 14.1146 10.9594 14.1406C11.1026 14.1536 11.197 14.1829 11.2426 14.2285C11.2882 14.2676 11.3109 14.3587 11.3109 14.502C11.3109 14.5996 11.2784 14.707 11.2133 14.8242C11.1547 14.9414 11.0766 15 10.9789 15H3.70352ZM29.4551 14.1406C29.5983 14.1536 29.6927 14.1829 29.7383 14.2285C29.7839 14.2676 29.8066 14.3587 29.8066 14.502C29.8066 14.5996 29.7741 14.707 29.709 14.8242C29.6504 14.9414 29.5723 15 29.4746 15H23.4004C23.3027 15 23.2214 14.9414 23.1563 14.8242C23.0977 14.707 23.0684 14.5996 23.0684 14.502C23.0684 14.3913 23.0912 14.3066 23.1367 14.248C23.1823 14.1895 23.2669 14.1536 23.3906 14.1406L23.7813 14.1211C24.1003 14.1146 24.3216 14.0983 24.4453 14.0723C24.569 14.0397 24.6309 13.9714 24.6309 13.8672C24.6309 13.8216 24.6211 13.7695 24.6016 13.7109L23.3809 10.3418L18.7031 10.332L17.4922 13.7109C17.4727 13.7565 17.4629 13.7988 17.4629 13.8379C17.4629 13.9551 17.5443 14.0299 17.707 14.0625C17.8698 14.0951 18.1302 14.1146 18.4883 14.1211L18.8984 14.1406C19.0221 14.1536 19.1068 14.1895 19.1523 14.248C19.1979 14.3066 19.2207 14.3913 19.2207 14.502C19.2207 14.5996 19.1882 14.707 19.1231 14.8242C19.0645 14.9414 18.9863 15 18.8887 15H14.7578C14.6537 15 14.5723 14.9512 14.5137 14.8535C14.4551 14.7559 14.4258 14.6387 14.4258 14.502C14.4258 14.3587 14.4486 14.2676 14.4941 14.2285C14.5397 14.1829 14.6341 14.1536 14.7773 14.1406C14.8294 14.1341 14.9141 14.1309 15.0313 14.1309C15.2331 14.1243 15.4023 14.1081 15.5391 14.082C15.6823 14.0495 15.819 13.9811 15.9492 13.877C16.0794 13.7663 16.1869 13.6035 16.2715 13.3887L20.959 0.927734H23.2441L27.8828 13.3887C27.9675 13.61 28.0781 13.776 28.2148 13.8867C28.3516 13.9909 28.4915 14.056 28.6348 14.082C28.778 14.1081 28.957 14.1243 29.1719 14.1309C29.3021 14.1309 29.3965 14.1341 29.4551 14.1406ZM21.252 3.37891L18.9766 9.50195H23.0879L21.252 3.37891ZM31.1637 15C31.066 15 30.9846 14.9414 30.9195 14.8242C30.8609 14.707 30.8316 14.5996 30.8316 14.502C30.8316 14.3913 30.8544 14.3066 30.9 14.248C30.9456 14.1895 31.0302 14.1536 31.1539 14.1406C31.5055 14.1211 31.7952 14.0885 32.0231 14.043C32.2509 13.9974 32.4462 13.9095 32.609 13.7793C32.7783 13.6491 32.8629 13.457 32.8629 13.2031V2.94922C32.8629 2.6888 32.7718 2.49349 32.5895 2.36328C32.4137 2.23307 32.2086 2.14844 31.9742 2.10938C31.7398 2.0638 31.4469 2.02799 31.0953 2.00195C30.9521 1.98893 30.8577 1.96289 30.8121 1.92383C30.7665 1.87826 30.7438 1.78385 30.7438 1.64062C30.7438 1.54297 30.7731 1.4388 30.8316 1.32812C30.8968 1.21094 30.9781 1.14909 31.0758 1.14258H37.3258V1.19141L40.5973 10.293L43.7223 2.00195C43.7613 1.9043 43.7971 1.76107 43.8297 1.57227C43.8688 1.38346 43.8883 1.24023 43.8883 1.14258H49.5231C49.6207 1.14258 49.6988 1.20117 49.7574 1.31836C49.8225 1.43555 49.8551 1.54297 49.8551 1.64062C49.8551 1.7513 49.8323 1.83594 49.7867 1.89453C49.7412 1.95312 49.6565 1.98893 49.5328 2.00195C48.5888 2.07357 48.1168 2.2819 48.1168 2.62695V13.1934C48.1168 13.4538 48.1917 13.6491 48.3414 13.7793C48.4912 13.903 48.6539 13.9844 48.8297 14.0234C49.0055 14.0625 49.2594 14.1016 49.5914 14.1406C49.7346 14.1536 49.829 14.1829 49.8746 14.2285C49.9202 14.2676 49.943 14.3587 49.943 14.502C49.943 14.5996 49.9104 14.707 49.8453 14.8242C49.7867 14.9414 49.7086 15 49.6109 15H43.3121C43.2145 15 43.1331 14.9414 43.068 14.8242C43.0094 14.707 42.9801 14.5996 42.9801 14.502C42.9801 14.3913 43.0029 14.3066 43.0484 14.248C43.094 14.1895 43.1787 14.1536 43.3023 14.1406C43.7125 14.1081 44.0673 14.043 44.3668 13.9453C44.6663 13.8477 44.816 13.7044 44.816 13.5156V2.49023H44.5426L39.8551 15H39.2984L34.1813 2.49023H33.8102V13.1934C33.8102 13.4473 33.9078 13.6426 34.1031 13.7793C34.2984 13.9095 34.5198 13.9974 34.7672 14.043C35.0146 14.082 35.3206 14.1146 35.6852 14.1406C35.8284 14.1536 35.9228 14.1829 35.9684 14.2285C36.0139 14.2676 36.0367 14.3587 36.0367 14.502C36.0367 14.5996 36.0042 14.707 35.9391 14.8242C35.8805 14.9414 35.8023 15 35.7047 15H31.1637ZM65.8996 14.1406C66.0428 14.1536 66.1372 14.1829 66.1828 14.2285C66.2284 14.2676 66.2512 14.3587 66.2512 14.502C66.2512 14.5996 66.2186 14.707 66.1535 14.8242C66.0949 14.9414 66.0168 15 65.9191 15H59.8449C59.7473 15 59.6659 14.9414 59.6008 14.8242C59.5422 14.707 59.5129 14.5996 59.5129 14.502C59.5129 14.3913 59.5357 14.3066 59.5813 14.248C59.6268 14.1895 59.7115 14.1536 59.8352 14.1406L60.2258 14.1211C60.5448 14.1146 60.7662 14.0983 60.8899 14.0723C61.0135 14.0397 61.0754 13.9714 61.0754 13.8672C61.0754 13.8216 61.0656 13.7695 61.0461 13.7109L59.8254 10.3418L55.1477 10.332L53.9367 13.7109C53.9172 13.7565 53.9074 13.7988 53.9074 13.8379C53.9074 13.9551 53.9888 14.0299 54.1516 14.0625C54.3143 14.0951 54.5747 14.1146 54.9328 14.1211L55.343 14.1406C55.4667 14.1536 55.5513 14.1895 55.5969 14.248C55.6425 14.3066 55.6652 14.3913 55.6652 14.502C55.6652 14.5996 55.6327 14.707 55.5676 14.8242C55.509 14.9414 55.4309 15 55.3332 15H51.2024C51.0982 15 51.0168 14.9512 50.9582 14.8535C50.8996 14.7559 50.8703 14.6387 50.8703 14.502C50.8703 14.3587 50.8931 14.2676 50.9387 14.2285C50.9843 14.1829 51.0787 14.1536 51.2219 14.1406C51.274 14.1341 51.3586 14.1309 51.4758 14.1309C51.6776 14.1243 51.8469 14.1081 51.9836 14.082C52.1268 14.0495 52.2635 13.9811 52.3938 13.877C52.524 13.7663 52.6314 13.6035 52.716 13.3887L57.4035 0.927734H59.6887L64.3274 13.3887C64.412 13.61 64.5227 13.776 64.6594 13.8867C64.7961 13.9909 64.9361 14.056 65.0793 14.082C65.2225 14.1081 65.4016 14.1243 65.6164 14.1309C65.7466 14.1309 65.841 14.1341 65.8996 14.1406ZM57.6965 3.37891L55.4211 9.50195H59.5324L57.6965 3.37891ZM67.9598 15C67.8621 15 67.7807 14.9414 67.7156 14.8242C67.657 14.707 67.6277 14.5996 67.6277 14.502C67.6277 14.3913 67.6505 14.3066 67.6961 14.248C67.7417 14.1895 67.8263 14.1536 67.95 14.1406C68.8354 14.069 69.2781 13.8607 69.2781 13.5156L69.2879 2.94922C69.2879 2.6888 69.2195 2.49349 69.0828 2.36328C68.9461 2.23307 68.7898 2.15169 68.6141 2.11914C68.4448 2.08008 68.2039 2.04102 67.8914 2.00195C67.7482 1.98893 67.6538 1.96289 67.6082 1.92383C67.5626 1.87826 67.5398 1.78385 67.5398 1.64062C67.5398 1.54297 67.5691 1.43555 67.6277 1.31836C67.6928 1.20117 67.7742 1.14258 67.8719 1.14258L68.9363 1.13281C69.1121 1.1263 69.379 1.12305 69.7371 1.12305C70.0887 1.12305 70.7397 1.11003 71.6902 1.08398C72.797 1.05794 73.6889 1.04492 74.366 1.04492C76.1629 1.04492 77.5366 1.34766 78.4871 1.95312C79.4441 2.55859 79.9227 3.48958 79.9227 4.74609C79.9227 5.56641 79.7599 6.23372 79.4344 6.74805C79.1089 7.26237 78.6889 7.65625 78.1746 7.92969C77.6668 8.20312 77.0581 8.43099 76.3484 8.61328C76.9344 8.67188 77.4096 8.83138 77.7742 9.0918C78.1453 9.35221 78.435 9.6582 78.6434 10.0098C78.8517 10.3613 79.0828 10.8366 79.3367 11.4355C79.506 11.8197 79.6395 12.1224 79.7371 12.3438C79.8413 12.5586 79.9617 12.7734 80.0984 12.9883C80.3068 13.3854 80.5184 13.6686 80.7332 13.8379C80.9546 14.0072 81.1987 14.1048 81.4656 14.1309C81.6023 14.1439 81.6935 14.1797 81.7391 14.2383C81.7912 14.2969 81.8172 14.401 81.8172 14.5508C81.8172 14.6419 81.7846 14.7396 81.7195 14.8438C81.6609 14.9479 81.5828 15 81.4852 15H78.1551C77.81 15 77.5171 14.873 77.2762 14.6191C77.0353 14.3652 76.8367 14.0527 76.6805 13.6816C76.5307 13.3105 76.355 12.8027 76.1531 12.1582C75.9318 11.4421 75.73 10.8691 75.5477 10.4395C75.3654 10.0098 75.118 9.64518 74.8055 9.3457C74.4995 9.04622 74.1186 8.89648 73.6629 8.89648H72.5008V13.1934C72.5008 13.4538 72.5822 13.6523 72.7449 13.7891C72.9077 13.9193 73.0997 14.0039 73.3211 14.043C73.5425 14.082 73.8224 14.1146 74.1609 14.1406C74.3042 14.1536 74.3986 14.1829 74.4441 14.2285C74.4897 14.2676 74.5125 14.3587 74.5125 14.502C74.5125 14.5996 74.48 14.707 74.4148 14.8242C74.3563 14.9414 74.2781 15 74.1805 15H67.9598ZM73.907 8.05664C74.7729 8.05664 75.437 7.82878 75.8992 7.37305C76.368 6.91081 76.6023 6.13607 76.6023 5.04883C76.6023 4.03971 76.3777 3.27799 75.9285 2.76367C75.4858 2.24935 74.8022 1.99219 73.8777 1.99219H72.5008V8.05664H73.907ZM97.8324 14.1406C97.9757 14.1536 98.0701 14.1829 98.1156 14.2285C98.1612 14.2676 98.184 14.3587 98.184 14.502C98.184 14.5996 98.1514 14.707 98.0863 14.8242C98.0277 14.9414 97.9496 15 97.852 15H91.7777C91.6801 15 91.5987 14.9414 91.5336 14.8242C91.475 14.707 91.4457 14.5996 91.4457 14.502C91.4457 14.3913 91.4685 14.3066 91.5141 14.248C91.5596 14.1895 91.6443 14.1536 91.768 14.1406L92.1586 14.1211C92.4776 14.1146 92.699 14.0983 92.8227 14.0723C92.9464 14.0397 93.0082 13.9714 93.0082 13.8672C93.0082 13.8216 92.9984 13.7695 92.9789 13.7109L91.7582 10.3418L87.0805 10.332L85.8695 13.7109C85.85 13.7565 85.8402 13.7988 85.8402 13.8379C85.8402 13.9551 85.9216 14.0299 86.0844 14.0625C86.2471 14.0951 86.5076 14.1146 86.8656 14.1211L87.2758 14.1406C87.3995 14.1536 87.4841 14.1895 87.5297 14.248C87.5753 14.3066 87.5981 14.3913 87.5981 14.502C87.5981 14.5996 87.5655 14.707 87.5004 14.8242C87.4418 14.9414 87.3637 15 87.266 15H83.1352C83.031 15 82.9496 14.9512 82.891 14.8535C82.8324 14.7559 82.8031 14.6387 82.8031 14.502C82.8031 14.3587 82.8259 14.2676 82.8715 14.2285C82.9171 14.1829 83.0115 14.1536 83.1547 14.1406C83.2068 14.1341 83.2914 14.1309 83.4086 14.1309C83.6104 14.1243 83.7797 14.1081 83.9164 14.082C84.0596 14.0495 84.1964 13.9811 84.3266 13.877C84.4568 13.7663 84.5642 13.6035 84.6488 13.3887L89.3363 0.927734H91.6215L96.2602 13.3887C96.3448 13.61 96.4555 13.776 96.5922 13.8867C96.7289 13.9909 96.8689 14.056 97.0121 14.082C97.1553 14.1081 97.3344 14.1243 97.5492 14.1309C97.6794 14.1309 97.7738 14.1341 97.8324 14.1406ZM89.6293 3.37891L87.3539 9.50195H91.4652L89.6293 3.37891ZM105.38 15C105.283 15 105.201 14.9414 105.136 14.8242C105.078 14.707 105.048 14.5996 105.048 14.502C105.048 14.3913 105.071 14.3066 105.117 14.248C105.162 14.1895 105.247 14.1536 105.371 14.1406C105.761 14.1081 106.093 14.0462 106.367 13.9551C106.647 13.8574 106.787 13.7109 106.787 13.5156V2.94922C106.787 2.69531 106.712 2.50326 106.562 2.37305C106.412 2.24284 106.246 2.1582 106.064 2.11914C105.888 2.08008 105.634 2.04102 105.302 2.00195C105.159 1.98893 105.065 1.96289 105.019 1.92383C104.974 1.87826 104.951 1.78385 104.951 1.64062C104.951 1.54297 104.98 1.43555 105.039 1.31836C105.104 1.20117 105.185 1.14258 105.283 1.14258H112.08C113.772 1.14909 115.214 1.46484 116.406 2.08984C117.597 2.70833 118.492 3.52214 119.091 4.53125C119.69 5.54036 119.99 6.6276 119.99 7.79297C119.99 9.38151 119.612 10.7194 118.857 11.8066C118.102 12.8874 117.168 13.6914 116.054 14.2188C114.941 14.7396 113.851 15 112.783 15H105.38ZM110.078 13.3594C110.078 13.5352 110.224 13.6882 110.517 13.8184C110.817 13.9486 111.347 14.0137 112.109 14.0137C113.027 14.0137 113.769 13.877 114.336 13.6035C114.902 13.3236 115.351 12.7376 115.683 11.8457C116.015 10.9473 116.181 9.60938 116.181 7.83203C116.181 6.30208 115.999 5.11719 115.634 4.27734C115.276 3.43099 114.795 2.85482 114.189 2.54883C113.59 2.24284 112.864 2.08984 112.011 2.08984H110.088L110.078 13.3594ZM122.118 14.502C122.118 14.3913 122.141 14.3066 122.187 14.248C122.232 14.1895 122.317 14.1536 122.441 14.1406C122.831 14.1081 123.167 14.0462 123.446 13.9551C123.726 13.8574 123.866 13.7109 123.866 13.5156V2.94922C123.866 2.69531 123.792 2.50326 123.642 2.37305C123.492 2.24284 123.326 2.1582 123.144 2.11914C122.968 2.08008 122.714 2.04102 122.382 2.00195C122.239 1.98893 122.144 1.96289 122.099 1.92383C122.053 1.87826 122.03 1.78385 122.03 1.64062C122.03 1.54297 122.06 1.43555 122.118 1.31836C122.183 1.20117 122.265 1.14258 122.363 1.14258H133.681L134.023 4.31641C134.029 4.41406 133.98 4.49544 133.876 4.56055C133.772 4.61914 133.671 4.64844 133.573 4.64844C133.222 4.64844 132.988 4.54102 132.87 4.32617C132.786 4.16341 132.649 3.88997 132.46 3.50586C132.278 3.12826 132.128 2.85156 132.011 2.67578C131.9 2.49349 131.76 2.35352 131.591 2.25586C131.428 2.1582 131.213 2.10938 130.946 2.10938H127.128V7.40234H129.736C129.892 7.38281 130.042 7.26888 130.185 7.06055C130.328 6.85221 130.448 6.61784 130.546 6.35742C130.644 6.09049 130.702 5.88216 130.722 5.73242C130.748 5.52409 130.898 5.41992 131.171 5.41992C131.269 5.41992 131.383 5.45247 131.513 5.51758C131.643 5.57617 131.708 5.6543 131.708 5.75195V10.0781C131.708 10.1758 131.643 10.2572 131.513 10.3223C131.383 10.3809 131.269 10.4102 131.171 10.4102C131.047 10.4102 130.94 10.3874 130.849 10.3418C130.758 10.2897 130.706 10.2051 130.693 10.0879C130.68 9.92513 130.624 9.70378 130.527 9.42383C130.429 9.13737 130.305 8.88672 130.155 8.67188C130.006 8.45052 129.846 8.33984 129.677 8.33984H127.128V13.0762C127.128 13.6491 127.424 13.9616 128.017 14.0137H130.839C131.23 14.0137 131.568 13.929 131.855 13.7598C132.148 13.5905 132.421 13.3171 132.675 12.9395C132.935 12.5618 133.222 12.0345 133.534 11.3574C133.58 11.2533 133.671 11.1751 133.808 11.123C133.945 11.0645 134.075 11.0352 134.198 11.0352C134.335 11.0352 134.465 11.0645 134.589 11.123C134.719 11.1816 134.791 11.263 134.804 11.3672L134.413 15H122.45C122.353 15 122.271 14.9414 122.206 14.8242C122.148 14.707 122.118 14.5996 122.118 14.502ZM142.772 15C142.674 15 142.593 14.9414 142.528 14.8242C142.469 14.707 142.44 14.5996 142.44 14.502C142.44 14.3913 142.463 14.3066 142.508 14.248C142.554 14.1895 142.638 14.1536 142.762 14.1406C143.12 14.1146 143.446 14.0365 143.739 13.9062C144.032 13.776 144.178 13.6133 144.178 13.418V2.94922C144.178 2.6888 144.107 2.49349 143.963 2.36328C143.827 2.22656 143.657 2.13867 143.455 2.09961C143.26 2.05404 143.006 2.02148 142.694 2.00195C142.551 1.98893 142.456 1.96289 142.411 1.92383C142.365 1.87826 142.342 1.78385 142.342 1.64062C142.342 1.54297 142.371 1.43555 142.43 1.31836C142.495 1.20117 142.577 1.14258 142.674 1.14258H149.364C149.461 1.14258 149.539 1.20117 149.598 1.31836C149.663 1.43555 149.696 1.54297 149.696 1.64062C149.696 1.88151 149.588 2.00195 149.373 2.00195C148.768 2.00195 148.302 2.07031 147.977 2.20703C147.658 2.34375 147.498 2.58138 147.498 2.91992V13.2715C147.498 13.5645 147.573 13.763 147.723 13.8672C147.873 13.9648 148.088 14.0137 148.368 14.0137H151.043C151.33 14.0137 151.623 13.8444 151.922 13.5059C152.228 13.1673 152.511 12.7441 152.772 12.2363C153.032 11.7285 153.247 11.2174 153.416 10.7031C153.449 10.599 153.55 10.5208 153.719 10.4688C153.895 10.4102 154.051 10.3809 154.188 10.3809C154.331 10.3809 154.461 10.4102 154.579 10.4688C154.702 10.5273 154.758 10.6087 154.745 10.7129L154.168 15H142.772ZM156.541 14.502C156.541 14.3913 156.564 14.3066 156.609 14.248C156.655 14.1895 156.74 14.1536 156.863 14.1406C157.254 14.1081 157.589 14.0462 157.869 13.9551C158.149 13.8574 158.289 13.7109 158.289 13.5156V2.94922C158.289 2.69531 158.214 2.50326 158.064 2.37305C157.915 2.24284 157.749 2.1582 157.566 2.11914C157.391 2.08008 157.137 2.04102 156.805 2.00195C156.661 1.98893 156.567 1.96289 156.521 1.92383C156.476 1.87826 156.453 1.78385 156.453 1.64062C156.453 1.54297 156.482 1.43555 156.541 1.31836C156.606 1.20117 156.688 1.14258 156.785 1.14258H168.104L168.445 4.31641C168.452 4.41406 168.403 4.49544 168.299 4.56055C168.195 4.61914 168.094 4.64844 167.996 4.64844C167.645 4.64844 167.41 4.54102 167.293 4.32617C167.208 4.16341 167.072 3.88997 166.883 3.50586C166.701 3.12826 166.551 2.85156 166.434 2.67578C166.323 2.49349 166.183 2.35352 166.014 2.25586C165.851 2.1582 165.636 2.10938 165.369 2.10938H161.551V7.40234H164.158C164.314 7.38281 164.464 7.26888 164.607 7.06055C164.751 6.85221 164.871 6.61784 164.969 6.35742C165.066 6.09049 165.125 5.88216 165.145 5.73242C165.171 5.52409 165.32 5.41992 165.594 5.41992C165.691 5.41992 165.805 5.45247 165.936 5.51758C166.066 5.57617 166.131 5.6543 166.131 5.75195V10.0781C166.131 10.1758 166.066 10.2572 165.936 10.3223C165.805 10.3809 165.691 10.4102 165.594 10.4102C165.47 10.4102 165.363 10.3874 165.271 10.3418C165.18 10.2897 165.128 10.2051 165.115 10.0879C165.102 9.92513 165.047 9.70378 164.949 9.42383C164.852 9.13737 164.728 8.88672 164.578 8.67188C164.428 8.45052 164.269 8.33984 164.1 8.33984H161.551V13.0762C161.551 13.6491 161.847 13.9616 162.439 14.0137H165.262C165.652 14.0137 165.991 13.929 166.277 13.7598C166.57 13.5905 166.844 13.3171 167.098 12.9395C167.358 12.5618 167.645 12.0345 167.957 11.3574C168.003 11.2533 168.094 11.1751 168.23 11.123C168.367 11.0645 168.497 11.0352 168.621 11.0352C168.758 11.0352 168.888 11.0645 169.012 11.123C169.142 11.1816 169.214 11.263 169.227 11.3672L168.836 15H156.873C156.775 15 156.694 14.9414 156.629 14.8242C156.57 14.707 156.541 14.5996 156.541 14.502ZM171.355 15C171.257 15 171.176 14.9414 171.111 14.8242C171.052 14.707 171.023 14.5996 171.023 14.502C171.023 14.3913 171.046 14.3066 171.091 14.248C171.137 14.1895 171.222 14.1536 171.345 14.1406C171.697 14.1211 171.987 14.0885 172.214 14.043C172.442 13.9974 172.638 13.9095 172.8 13.7793C172.97 13.6491 173.054 13.457 173.054 13.2031V2.94922C173.054 2.6888 172.963 2.49349 172.781 2.36328C172.605 2.23307 172.4 2.14844 172.166 2.10938C171.931 2.0638 171.638 2.02799 171.287 2.00195C171.143 1.98893 171.049 1.96289 171.004 1.92383C170.958 1.87826 170.935 1.78385 170.935 1.64062C170.935 1.54297 170.964 1.4388 171.023 1.32812C171.088 1.21094 171.17 1.14909 171.267 1.14258H177.517V1.19141L180.789 10.293L183.914 2.00195C183.953 1.9043 183.989 1.76107 184.021 1.57227C184.06 1.38346 184.08 1.24023 184.08 1.14258H189.714C189.812 1.14258 189.89 1.20117 189.949 1.31836C190.014 1.43555 190.046 1.54297 190.046 1.64062C190.046 1.7513 190.024 1.83594 189.978 1.89453C189.933 1.95312 189.848 1.98893 189.724 2.00195C188.78 2.07357 188.308 2.2819 188.308 2.62695V13.1934C188.308 13.4538 188.383 13.6491 188.533 13.7793C188.683 13.903 188.845 13.9844 189.021 14.0234C189.197 14.0625 189.451 14.1016 189.783 14.1406C189.926 14.1536 190.02 14.1829 190.066 14.2285C190.112 14.2676 190.134 14.3587 190.134 14.502C190.134 14.5996 190.102 14.707 190.037 14.8242C189.978 14.9414 189.9 15 189.802 15H183.504C183.406 15 183.324 14.9414 183.259 14.8242C183.201 14.707 183.171 14.5996 183.171 14.502C183.171 14.3913 183.194 14.3066 183.24 14.248C183.285 14.1895 183.37 14.1536 183.494 14.1406C183.904 14.1081 184.259 14.043 184.558 13.9453C184.858 13.8477 185.007 13.7044 185.007 13.5156V2.49023H184.734L180.046 15H179.49L174.373 2.49023H174.002V13.1934C174.002 13.4473 174.099 13.6426 174.295 13.7793C174.49 13.9095 174.711 13.9974 174.959 14.043C175.206 14.082 175.512 14.1146 175.877 14.1406C176.02 14.1536 176.114 14.1829 176.16 14.2285C176.205 14.2676 176.228 14.3587 176.228 14.502C176.228 14.5996 176.196 14.707 176.13 14.8242C176.072 14.9414 175.994 15 175.896 15H171.355ZM192.673 15C192.575 15 192.494 14.9414 192.429 14.8242C192.37 14.707 192.341 14.5996 192.341 14.502C192.341 14.3913 192.364 14.3066 192.409 14.248C192.455 14.1895 192.54 14.1536 192.663 14.1406C193.49 14.0755 193.904 13.8672 193.904 13.5156V2.94922C193.904 2.6888 193.835 2.49349 193.698 2.36328C193.562 2.23307 193.405 2.15169 193.23 2.11914C193.06 2.08008 192.82 2.04102 192.507 2.00195C192.364 1.98893 192.269 1.96289 192.224 1.92383C192.178 1.87826 192.155 1.78385 192.155 1.64062C192.155 1.54297 192.185 1.43555 192.243 1.31836C192.308 1.20117 192.39 1.14258 192.488 1.14258H195.368C195.915 1.14258 196.657 1.12305 197.595 1.08398C198.402 1.05794 198.956 1.04492 199.255 1.04492C202.855 1.04492 204.655 2.40885 204.655 5.13672C204.655 6.03516 204.454 6.81641 204.05 7.48047C203.646 8.13802 203.018 8.65234 202.165 9.02344C201.319 9.39453 200.251 9.58008 198.962 9.58008H197.175V13.1934C197.175 13.4473 197.299 13.6426 197.546 13.7793C197.8 13.9095 198.07 13.9974 198.357 14.043C198.65 14.082 199.011 14.1146 199.441 14.1406C199.584 14.1536 199.678 14.1829 199.724 14.2285C199.769 14.2676 199.792 14.3587 199.792 14.502C199.792 14.5996 199.76 14.707 199.695 14.8242C199.636 14.9414 199.558 15 199.46 15H192.673ZM198.249 8.64258C199.063 8.64258 199.734 8.39193 200.261 7.89062C200.795 7.38932 201.062 6.53971 201.062 5.3418C201.062 4.46289 200.958 3.78255 200.749 3.30078C200.547 2.8125 200.245 2.47396 199.841 2.28516C199.437 2.08984 198.907 1.99219 198.249 1.99219H197.175V8.64258H198.249ZM206.999 15C206.901 15 206.82 14.9414 206.755 14.8242C206.696 14.707 206.667 14.5996 206.667 14.502C206.667 14.3913 206.69 14.3066 206.735 14.248C206.781 14.1895 206.865 14.1536 206.989 14.1406C207.38 14.1081 207.712 14.0462 207.985 13.9551C208.265 13.8574 208.405 13.7109 208.405 13.5156L208.415 2.94922C208.415 2.6888 208.337 2.49349 208.18 2.36328C208.031 2.23307 207.858 2.14844 207.663 2.10938C207.468 2.0638 207.223 2.02799 206.93 2.00195C206.787 1.98893 206.693 1.96289 206.647 1.92383C206.602 1.87826 206.579 1.78385 206.579 1.64062C206.579 1.54297 206.608 1.43555 206.667 1.31836C206.732 1.20117 206.813 1.14258 206.911 1.14258H213.112C213.21 1.14258 213.288 1.20117 213.346 1.31836C213.412 1.43555 213.444 1.54297 213.444 1.64062C213.444 1.7513 213.421 1.83594 213.376 1.89453C213.33 1.95312 213.246 1.98893 213.122 2.00195C212.178 2.07357 211.706 2.2819 211.706 2.62695L211.696 13.1934C211.696 13.4538 211.771 13.6491 211.921 13.7793C212.077 13.9095 212.253 13.9974 212.448 14.043C212.643 14.082 212.888 14.1146 213.18 14.1406C213.324 14.1536 213.418 14.1829 213.464 14.2285C213.509 14.2676 213.532 14.3587 213.532 14.502C213.532 14.5996 213.499 14.707 213.434 14.8242C213.376 14.9414 213.298 15 213.2 15H206.999ZM223.6 15.293C222.181 15.293 220.875 15.0651 219.684 14.6094C218.499 14.1471 217.536 13.3822 216.793 12.3145C216.051 11.2402 215.68 9.83724 215.68 8.10547C215.68 6.48438 216.064 5.13021 216.832 4.04297C217.607 2.94922 218.584 2.14518 219.762 1.63086C220.947 1.11003 222.158 0.849609 223.395 0.849609C224.371 0.849609 225.159 0.914714 225.758 1.04492C226.357 1.17513 226.904 1.33789 227.399 1.5332C227.523 1.58529 227.636 1.6276 227.741 1.66016C227.851 1.69271 227.942 1.70898 228.014 1.70898L228.18 4.83398C228.193 4.93164 228.115 5.02279 227.946 5.10742C227.783 5.18555 227.646 5.22461 227.536 5.22461L227.399 5.23438C227.23 5.23438 227.067 5.21159 226.911 5.16602C226.754 5.12044 226.666 5.04883 226.647 4.95117C226.471 3.98112 226.136 3.21289 225.641 2.64648C225.153 2.07357 224.398 1.78711 223.375 1.78711C222.705 1.78711 222.086 1.93685 221.52 2.23633C220.954 2.5293 220.472 3.14128 220.075 4.07227C219.677 5.00326 219.479 6.34766 219.479 8.10547C219.479 9.77214 219.697 11.071 220.133 12.002C220.569 12.9264 221.09 13.5514 221.696 13.877C222.308 14.2025 222.939 14.3652 223.59 14.3652C224.222 14.3652 224.775 14.2122 225.25 13.9062C225.726 13.5938 226.11 13.1836 226.403 12.6758C226.702 12.1615 226.911 11.5918 227.028 10.9668C227.067 10.752 227.223 10.6445 227.496 10.6445C227.614 10.6445 227.757 10.6771 227.926 10.7422C228.102 10.8008 228.19 10.8789 228.19 10.9766L227.916 13.9453C227.903 14.0495 227.685 14.2155 227.262 14.4434C226.839 14.6647 226.299 14.86 225.641 15.0293C224.99 15.2051 224.31 15.293 223.6 15.293ZM231.041 15C230.943 15 230.862 14.9414 230.797 14.8242C230.738 14.707 230.709 14.5996 230.709 14.502C230.709 14.3913 230.732 14.3066 230.777 14.248C230.823 14.1895 230.908 14.1536 231.031 14.1406C231.389 14.1146 231.715 14.0365 232.008 13.9062C232.301 13.776 232.447 13.6133 232.447 13.418L232.457 2.94922C232.457 2.69531 232.382 2.50326 232.232 2.37305C232.083 2.24284 231.917 2.1582 231.734 2.11914C231.559 2.08008 231.305 2.04102 230.973 2.00195C230.829 1.98893 230.735 1.96289 230.689 1.92383C230.644 1.87826 230.621 1.78385 230.621 1.64062C230.621 1.54297 230.65 1.43555 230.709 1.31836C230.774 1.20117 230.855 1.14258 230.953 1.14258H237.057C237.154 1.14258 237.232 1.20117 237.291 1.31836C237.356 1.43555 237.389 1.54297 237.389 1.64062C237.389 1.7513 237.363 1.83919 237.311 1.9043C237.265 1.96289 237.184 1.99544 237.066 2.00195C236.728 2.02799 236.422 2.08984 236.148 2.1875C235.882 2.28516 235.748 2.43164 235.748 2.62695L235.738 13.1934C235.738 13.4538 235.807 13.6491 235.943 13.7793C236.08 13.9095 236.233 13.9941 236.402 14.0332C236.572 14.0658 236.812 14.1016 237.125 14.1406C237.268 14.1536 237.363 14.1829 237.408 14.2285C237.454 14.2676 237.477 14.3587 237.477 14.502C237.477 14.5996 237.444 14.707 237.379 14.8242C237.32 14.9414 237.242 15 237.145 15H231.041ZM241.598 15C241.344 15 241.113 14.9023 240.904 14.707C240.702 14.5117 240.475 14.2122 240.221 13.8086C239.98 13.418 239.651 12.8385 239.234 12.0703C238.772 11.2109 238.378 10.5208 238.053 10C237.727 9.47917 237.376 9.04297 236.998 8.69141C236.627 8.33333 236.256 8.16732 235.885 8.19336L241.139 2.53906C241.197 2.46745 241.227 2.40885 241.227 2.36328C241.227 2.2526 241.129 2.17773 240.934 2.13867C240.738 2.0931 240.462 2.05078 240.104 2.01172C239.986 1.9987 239.905 1.96289 239.859 1.9043C239.82 1.8457 239.801 1.76107 239.801 1.65039C239.801 1.55273 239.83 1.44531 239.889 1.32812C239.954 1.21094 240.035 1.15234 240.133 1.15234H244.938C245.035 1.15234 245.113 1.21094 245.172 1.32812C245.237 1.44531 245.27 1.55273 245.27 1.65039C245.27 1.89128 245.162 2.01172 244.947 2.01172C244.596 2.01172 244.234 2.07357 243.863 2.19727C243.492 2.31445 243.199 2.48047 242.984 2.69531L239.107 6.5918C239.433 6.73503 239.817 7.11263 240.26 7.72461C240.709 8.33659 241.288 9.20247 241.998 10.3223C242.59 11.2533 242.984 11.8587 243.18 12.1387C243.642 12.7897 244.052 13.278 244.41 13.6035C244.768 13.929 245.071 14.1048 245.318 14.1309C245.455 14.1439 245.546 14.1797 245.592 14.2383C245.644 14.2969 245.67 14.401 245.67 14.5508C245.67 14.6419 245.637 14.7396 245.572 14.8438C245.514 14.9479 245.436 15 245.338 15H241.598ZM261.304 14.1406C261.448 14.1536 261.542 14.1829 261.588 14.2285C261.633 14.2676 261.656 14.3587 261.656 14.502C261.656 14.5996 261.623 14.707 261.558 14.8242C261.5 14.9414 261.421 15 261.324 15H255.25C255.152 15 255.071 14.9414 255.005 14.8242C254.947 14.707 254.918 14.5996 254.918 14.502C254.918 14.3913 254.94 14.3066 254.986 14.248C255.032 14.1895 255.116 14.1536 255.24 14.1406L255.63 14.1211C255.949 14.1146 256.171 14.0983 256.295 14.0723C256.418 14.0397 256.48 13.9714 256.48 13.8672C256.48 13.8216 256.47 13.7695 256.451 13.7109L255.23 10.3418L250.552 10.332L249.341 13.7109C249.322 13.7565 249.312 13.7988 249.312 13.8379C249.312 13.9551 249.393 14.0299 249.556 14.0625C249.719 14.0951 249.979 14.1146 250.338 14.1211L250.748 14.1406C250.871 14.1536 250.956 14.1895 251.002 14.248C251.047 14.3066 251.07 14.3913 251.07 14.502C251.07 14.5996 251.037 14.707 250.972 14.8242C250.914 14.9414 250.836 15 250.738 15H246.607C246.503 15 246.421 14.9512 246.363 14.8535C246.304 14.7559 246.275 14.6387 246.275 14.502C246.275 14.3587 246.298 14.2676 246.343 14.2285C246.389 14.1829 246.483 14.1536 246.627 14.1406C246.679 14.1341 246.763 14.1309 246.88 14.1309C247.082 14.1243 247.252 14.1081 247.388 14.082C247.532 14.0495 247.668 13.9811 247.798 13.877C247.929 13.7663 248.036 13.6035 248.121 13.3887L252.808 0.927734H255.093L259.732 13.3887C259.817 13.61 259.927 13.776 260.064 13.8867C260.201 13.9909 260.341 14.056 260.484 14.082C260.627 14.1081 260.806 14.1243 261.021 14.1309C261.151 14.1309 261.246 14.1341 261.304 14.1406ZM253.101 3.37891L250.826 9.50195H254.937L253.101 3.37891Z" fill="#C4671C"/>
</svg>
